<?xml version="1.0" encoding="UTF-8" standalone="no"?>
<svg width="140px" height="20px" viewBox="0 0 140 20" version="1.1" xmlns="http://www.w3.org/2000/svg" xmlns:xlink="http://www.w3.org/1999/xlink">
    <!-- Generator: Sketch 3.6.1 (26313) - http://www.bohemiancoding.com/sketch -->
    <title>White Logo</title>
    <desc>Created with Sketch.</desc>
    <defs></defs>
    <g id="Page-1" stroke="none" stroke-width="1" fill="none" fill-rule="evenodd">
        <g id="Desktop-HD-Copy-2" transform="translate(-53.000000, -31.000000)" fill="#FFFFFF">
            <g id="White-Logo" transform="translate(53.000000, 31.000000)">
                <path d="M101.731023,1.55736541 C101.834983,1.24356791 101.650165,0.999503176 101.211221,0.836793357 C100.89934,0.732194187 100.067657,0.418396678 98.9356436,0.209198339 C95.2161716,-0.418396678 91.5891089,0.313797509 89.6369637,3.42852834 C89.1171617,4.36992086 88.7013201,5.81106498 88.7013201,8.00764754 C88.7013201,12.5867667 88.8052805,18.7232514 88.8052805,18.9324497 C88.8052805,19.2462472 88.9092409,19.4554455 89.3250825,19.5600447 C89.6369637,19.6646439 90.3531353,19.7692431 91.3927393,19.7692431 C92.5363036,19.7692431 93.4372937,19.6646439 93.7491749,19.5600447 C94.1650165,19.3508464 94.1419142,19.0370489 94.1419142,19.0370489 L94.1419142,8.32144505 C94.1419142,6.24108379 95.9092409,5.1602257 97.9884488,5.45077895 L98.109736,5.48564534 C99.5536304,5.77619859 99.7586634,5.70646581 100.186056,5.07887079 C100.601898,4.35829873 101.419142,2.59173498 101.731023,1.55736541" id="Fill-1"></path>
                <path d="M8.79042904,14.3765748 C10.7541254,14.3765748 12.3019802,13.237606 12.3019802,11.0526456 C12.3019802,10.5296497 12.4059406,4.4628979 12.3019802,0.825171227 C12.3019802,0.825171227 12.3019802,0.302175379 12.7178218,0.209198339 C13.029703,0.10459917 13.9537954,0.0232442599 15.0858086,0.0232442599 C16.1138614,0.0232442599 16.8762376,0.1162213 17.1765677,0.197576209 C17.4768977,0.278931119 17.6732673,0.511373718 17.6732673,0.825171227 C17.6732673,1.03436957 17.7772277,6.90354519 17.7772277,11.3664431 C17.7772277,13.5397814 17.3613861,14.6787501 16.8415842,15.6085205 C15.3052805,18.3048547 12.5214521,19.7576209 8.89438944,19.7576209 L8.79042904,19.7576209 C5.17491749,19.7576209 2.48349835,18.3164768 0.935643564,15.6085205 C0.415841584,14.667128 0,13.5397814 0,11.3664431 C0,6.90354519 0.103960396,0.953014656 0.103960396,0.848415487 C0.103960396,0.534617978 0.184818482,0.313797509 0.612211221,0.197576209 C1.03960396,0.0697327797 1.74422442,0 2.67986799,0 C3.82343234,0 4.47029703,0.10459917 4.75907591,0.209198339 C5.27887789,0.383530289 5.27887789,0.743816317 5.27887789,0.743816317 C5.27887789,4.38154299 5.26732673,10.5412719 5.26732673,11.0526456 C5.27887789,13.237606 6.82673267,14.3765748 8.79042904,14.3765748" id="Fill-2"></path>
                <path d="M56.6353135,19.3508464 C56.2772277,18.9324497 54.879538,15.8990738 53.0313531,11.1223784 C51.0792079,6.03188545 49.3234323,1.3597892 49.3234323,0.732194187 C49.3234323,0.10459917 50.7673267,0.01162213 51.7953795,0.01162213 C53.9554455,0.01162213 54.1633663,0.220820469 54.5792079,1.0459917 C54.7871287,1.56898754 57.8712871,9.78583342 58.4950495,11.447798 C58.4950495,11.5523972 58.8069307,11.5523972 58.9108911,11.447798 C59.7310231,9.26283757 62.7227723,1.46438837 63.0231023,1.0459917 C63.4389439,0.209198339 63.6468647,0.01162213 65.8069307,0.01162213 C66.8349835,0.01162213 68.2788779,0.01162213 68.2788779,0.732194187 C68.2788779,1.3597892 66.6270627,5.93890841 64.6749175,11.0294013 C62.8267327,15.8177189 61.3712871,18.8162284 61.0478548,19.3624685 C60.8052805,19.7808652 59.8580858,19.7692431 58.9224422,19.7692431 C57.9867987,19.7576209 56.9933993,19.7808652 56.6353135,19.3508464" id="Fill-3"></path>
                <path d="M29.490099,0 C33.0940594,0 35.7623762,1.40627772 37.310231,4.2304553 C37.8184818,5.17184783 38.2343234,6.29919444 38.2343234,8.48415487 C38.2343234,12.970297 38.130363,18.9208276 38.130363,19.0254267 C38.130363,19.3392242 38.0264026,19.5368005 37.6221122,19.6413996 C37.310231,19.7459988 36.5940594,19.7459988 35.5660066,19.7459988 C34.4339934,19.7459988 33.7062706,19.6995103 33.3135314,19.5600447 C32.9323432,19.408957 32.9207921,19.0370489 32.9207921,19.0370489 L32.9207921,8.56550978 C32.9207921,6.36892722 31.4653465,5.02076014 29.4092409,5.02076014 C27.4570957,5.02076014 25.799505,6.38054935 25.799505,8.56550978 C25.799505,9.08850562 25.6868812,15.3644558 25.7908416,19.0254267 C25.7908416,19.0254267 25.7575743,19.5135562 25.3879373,19.6297775 C25.0067492,19.7343767 24.3606931,19.7576209 23.2286799,19.7576209 C22.2006271,19.7576209 21.334637,19.6646439 21.0689604,19.6065332 C20.8032838,19.5484226 20.5609406,19.2927357 20.5609406,19.0835374 C20.5609406,18.874339 20.4569802,13.0516519 20.4569802,8.55388765 C20.4569802,6.35730509 20.8729373,5.1602257 21.3811881,4.21883317 C23.1254125,1.40627772 25.8976898,0 29.3976898,0 L29.490099,0" id="Fill-4"></path>
                <path d="M42.1963696,19.5949111 C41.7805281,19.4903119 41.6881188,19.1300259 41.6881188,18.8278505 C41.6881188,18.7232514 41.5841584,17.6888818 41.5841584,9.68123425 C41.5841584,1.99900635 41.6881188,0.848415487 41.6881188,0.743816317 C41.6881188,0.430018808 41.7920792,0.220820469 42.1963696,0.1162213 C42.5082508,0 43.2244224,0 44.2524752,0 C45.2689769,0 46.2046205,0.0581106498 46.5049505,0.10459917 C46.8976898,0.162709819 47.0132013,0.418396678 47.0132013,0.732194187 C47.0132013,0.836793357 47.1171617,1.98738422 47.1171617,9.66961212 C47.1171617,17.6656375 47.0132013,18.8627169 47.0132013,18.9673161 C47.0132013,19.2811136 46.8861386,19.4322013 46.5049505,19.5949111 C46.1930693,19.6995103 45.4653465,19.7576209 44.4372937,19.7576209 C43.4092409,19.7576209 42.450495,19.6530218 42.1963696,19.5949111" id="Fill-5"></path>
                <path d="M111.20297,7.38005252 C110.371287,7.38005252 108.719472,7.17085418 108.719472,5.72971007 C108.719472,4.27694382 109.770627,4.17234465 110.90264,4.17234465 C111.618812,4.17234465 113.074257,4.38154299 115.037954,4.89291671 C116.377888,5.31131339 117.313531,5.72971007 117.625413,5.83430924 C117.937294,6.04350758 118.561056,5.20671422 119.069307,4.17234465 C119.577558,3.13797509 119.693069,2.19658256 119.381188,2.09198339 C118.861386,1.77818588 114.830033,0.01162213 110.60231,0.01162213 C106.882838,0.01162213 102.747525,1.67358671 102.747525,6.34568296 C102.747525,10.7039817 106.732673,11.8313283 110.556106,12.1451258 L110.914191,12.1799922 C112.358086,12.2845914 113.917492,12.3775684 113.917492,13.8303346 C113.917492,14.9693034 113.282178,15.5968984 111.526403,15.5968984 C109.458746,15.5968984 106.975248,14.6555059 105.323432,13.8303346 C104.491749,13.411938 103.983498,12.9935413 103.775578,12.9935413 C103.567657,12.9935413 102.839934,13.6211363 102.227723,14.4463075 C101.707921,15.2831009 101.39604,16.2128713 101.60396,16.5266688 C102.123762,17.1542638 103.775578,17.979435 105.427393,18.6070301 C106.767327,19.1300259 108.938944,19.7459988 111.214521,19.7459988 C116.377888,19.7459988 119.785479,17.3634622 119.785479,13.2957167 C119.993399,8.30982292 114.922442,7.48465169 111.20297,7.38005252" id="Fill-6"></path>
                <path d="M139.768977,9.46041378 C139.768977,2.49875794 135.529703,0 130.793729,0 C125.237624,0 121.633663,3.74232585 121.633663,9.46041378 C121.633663,16.5266688 127.50165,19.7576209 131.105611,19.7576209 C134.605611,19.7576209 136.557756,19.0370489 138.417492,18.0956563 C139.041254,17.7818588 139.133663,17.6772597 139.041254,17.258863 C138.937294,16.9450655 138.729373,16.4220696 138.417492,15.7014976 C138.00165,14.8647042 137.620462,14.2719756 137.389439,14.039533 C137.262376,13.9116896 137.077558,13.8303346 136.569307,14.039533 C135.033003,14.760105 132.768977,15.1785017 131.429043,15.1785017 C128.240924,15.1785017 127.120462,12.517034 127.028053,11.8894389 C127.016502,11.7848398 127.039604,11.7383513 127.178218,11.7383513 C128.10231,11.7383513 130.516502,11.8429504 132.480198,11.8429504 C135.668317,11.8429504 137.932343,11.7383513 138.971947,11.7383513 C139.422442,11.7383513 139.780528,11.5756414 139.792079,11.1107562 C139.757426,10.3901842 139.768977,10.192608 139.768977,9.46041378 L139.768977,9.46041378 Z M134.778878,7.77520494 L126.981848,7.75196068 C126.773927,7.75196068 126.773927,7.54276234 126.773927,7.54276234 C126.773927,5.56700025 128.645215,4.02125696 130.909241,4.02125696 C133.173267,4.02125696 135.009901,5.56700025 135.009901,7.54276234 C135.021452,7.75196068 134.859736,7.77520494 134.778878,7.77520494 L134.778878,7.77520494 Z" id="Fill-7"></path>
                <path d="M86.4026403,9.57663508 C86.4026403,2.61497924 82.1633663,0.1162213 77.4273927,0.1162213 C71.8712871,0.1162213 68.2673267,3.85854715 68.2673267,9.57663508 C68.2673267,16.6428901 74.1353135,19.8738422 77.7392739,19.8738422 C81.2392739,19.8738422 83.1914191,19.1532702 85.0511551,18.2118776 C85.6749175,17.8980801 85.7673267,17.793481 85.6749175,17.3750843 C85.5709571,17.0612868 85.3630363,16.5382909 85.0511551,15.8177189 C84.6353135,14.9809255 84.2541254,14.3881969 84.0231023,14.1557543 C83.8960396,14.0279109 83.7112211,13.9465559 83.2029703,14.1557543 C81.6666667,14.8763263 79.4026403,15.294723 78.0627063,15.294723 C74.8745875,15.294723 73.7541254,12.6332553 73.6617162,12.0056602 C73.650165,11.9010611 73.6732673,11.8545726 73.8118812,11.8545726 C74.7359736,11.8545726 77.150165,11.9591717 79.1138614,11.9591717 C82.3019802,11.9591717 84.5660066,11.8545726 85.6056106,11.8545726 C86.0561056,11.8545726 86.4141914,11.6918627 86.4257426,11.2269775 C86.3910891,10.5064055 86.4026403,10.3088293 86.4026403,9.57663508 L86.4026403,9.57663508 Z M81.4125413,7.89142624 L73.6155116,7.86818198 C73.4075908,7.86818198 73.4075908,7.65898364 73.4075908,7.65898364 C73.4075908,5.68322155 75.2788779,4.13747826 77.5429043,4.13747826 C79.8069307,4.13747826 81.6551155,5.69484368 81.6551155,7.67060577 C81.6551155,7.86818198 81.4933993,7.89142624 81.4125413,7.89142624 L81.4125413,7.89142624 Z" id="Fill-8"></path>
            </g>
        </g>
    </g>
</svg>